<svg width="2000" height="346" viewBox="0 0 2000 346" fill="none" xmlns="http://www.w3.org/2000/svg">
    <path class="line1" d="M0 145C0 145 7.19197 144.895 39.5 161.893C143.348 216.534 194 280.5 305 255C416 229.5 503 114.5 618.5 117.5C734 120.5 784.5 226.5 927 156.554C1069.5 86.609 1136 46.0678 1311 150.122C1486 254.176 1637.61 203.567 1794.5 203.567C1897.5 203.567 1999 203.5 1999 203.5" stroke="#4064AC" stroke-opacity="0.25" stroke-width="4" stroke-miterlimit="10"/>
    <path class="line2" d="M0 2.50001C56.5 1.50001 122.58 47.715 169.096 94.372C227.67 153.124 293.493 223.668 384.492 216.863C420.693 214.156 454.369 198.37 488.868 187.07C581.061 156.872 680.246 158.514 777.234 160.708C999.893 165.745 1055.33 301.5 1278 301.5C1351.5 301.5 1529 246 1624 246C1710.44 246 1999 246 1999 246" stroke="#61BEEC" stroke-opacity="0.25" stroke-width="4" stroke-miterlimit="10"/>
    <path class="line3" d="M0 342.5C37.5 342.5 213.554 352.357 305.996 312.991C416.856 265.781 517.096 190.186 641.978 184.791C733.316 180.846 826.675 213.422 912.828 240.317C965.564 256.172 983 264.168 1044.5 264.168C1106 264.168 1151.5 225.832 1259.5 209C1367.5 192.168 1492 282.5 1576 282.5C1660 282.5 1999.01 282.5 1999.01 282.5" stroke="#224386" stroke-opacity="0.25" stroke-width="4" stroke-miterlimit="10"/>
    <path class="line4" d="M0 274C40.5 274 199.76 170.529 311.48 148.525C358.515 139.261 443.848 130.132 507.274 151.929C570.7 173.726 699.078 234.218 847.289 216.859C995.5 199.5 1131.5 70.4999 1252.5 57.5C1373.5 44.5 1545.5 152 1649 152C1752.5 152 1999.5 152 1999.5 152" stroke="#2796D0" stroke-opacity="0.25" stroke-width="4" stroke-miterlimit="10"/>
</svg>